<svg xmlns="http://www.w3.org/2000/svg" style="display:none">
  <symbol id="i-gem" viewBox="0 0 24 24"><path d="M3.5 9 7.8 4.5h8.4L20.5 9 12 19.5 3.5 9Zm4.3-4.5L12 19.5m4.2-15L12 19.5M3.5 9h17" fill="none" stroke="currentColor" stroke-width="1.8" stroke-linejoin="round"/></symbol>
  <symbol id="i-shield" viewBox="0 0 24 24"><path d="M12 3.5 19 6v5c0 4.7-2.8 8.2-7 10-4.2-1.8-7-5.3-7-10V6l7-2.5Z" fill="none" stroke="currentColor" stroke-width="1.8" stroke-linejoin="round"/></symbol>
  <symbol id="i-clock" viewBox="0 0 24 24"><circle cx="12" cy="12" r="8.5" fill="none" stroke="currentColor" stroke-width="1.8"/><path d="M12 7.5v4.8l3 1.9" fill="none" stroke="currentColor" stroke-width="1.8" stroke-linecap="round"/></symbol>
  <symbol id="i-wallet" viewBox="0 0 24 24"><path d="M5 7.5A2.5 2.5 0 0 1 7.5 5H18v14H7.5A2.5 2.5 0 0 1 5 16.5v-9Z" fill="none" stroke="currentColor" stroke-width="1.8"/><path d="M18 9h2v6h-2" fill="none" stroke="currentColor" stroke-width="1.8"/><circle cx="16.2" cy="12" r=".9" fill="currentColor"/></symbol>
  <symbol id="i-doc" viewBox="0 0 24 24"><path d="M8 3.5h7l4 4V20H8a2 2 0 0 1-2-2V5.5a2 2 0 0 1 2-2Z" fill="none" stroke="currentColor" stroke-width="1.8"/><path d="M15 3.5v4h4M9.5 12h5M9.5 15h5" fill="none" stroke="currentColor" stroke-width="1.8" stroke-linecap="round"/></symbol>
  <symbol id="i-tooth" viewBox="0 0 24 24"><path d="M6.8 4.2c1.9-.8 3.4 0 5.2 0 1.8 0 3.3-.8 5.2 0 2.3.9 3.3 3.2 3 6-.6 4-2.2 9.9-4.3 9.9-1.2 0-1.7-2.6-3.9-2.6S9.3 20 8.1 20c-2.1 0-3.7-5.9-4.3-9.9-.3-2.8.7-5.1 3-6Z" fill="none" stroke="currentColor" stroke-width="1.8" stroke-linejoin="round"/></symbol>
  <symbol id="i-users" viewBox="0 0 24 24"><circle cx="9" cy="8.5" r="2.8" fill="none" stroke="currentColor" stroke-width="1.8"/><circle cx="16.2" cy="8" r="2.2" fill="none" stroke="currentColor" stroke-width="1.8"/><path d="M4.7 18c.3-2.8 2.4-4.7 5.2-4.7 2.9 0 5 1.9 5.3 4.7M15 13.8c1.7.3 3 1.5 3.4 3.2" fill="none" stroke="currentColor" stroke-width="1.8" stroke-linecap="round"/></symbol>
  <symbol id="i-plan" viewBox="0 0 24 24"><rect x="5" y="4" width="14" height="16" rx="2" fill="none" stroke="currentColor" stroke-width="1.8"/><path d="M9 2.8v2.5M15 2.8v2.5M8.5 9h7M8.5 12.5h5" fill="none" stroke="currentColor" stroke-width="1.8" stroke-linecap="round"/></symbol>
  <symbol id="i-scan" viewBox="0 0 24 24"><path d="M8 4H5a1 1 0 0 0-1 1v3M16 4h3a1 1 0 0 1 1 1v3M8 20H5a1 1 0 0 1-1-1v-3M16 20h3a1 1 0 0 0 1-1v-3" fill="none" stroke="currentColor" stroke-width="1.8" stroke-linecap="round"/><circle cx="12" cy="12" r="3" fill="none" stroke="currentColor" stroke-width="1.8"/></symbol>
  <symbol id="i-pin" viewBox="0 0 24 24"><path d="M12 20s6-5.3 6-10a6 6 0 1 0-12 0c0 4.7 6 10 6 10Z" fill="none" stroke="currentColor" stroke-width="1.8"/><circle cx="12" cy="10" r="2" fill="none" stroke="currentColor" stroke-width="1.8"/></symbol>
  <symbol id="i-phone" viewBox="0 0 24 24"><path d="M7.8 4.5h2.1l1.1 4-1.8 1.8a14.6 14.6 0 0 0 4.5 4.5l1.8-1.8 4 1.1v2.1c0 1-.8 1.8-1.8 1.8C10.5 18 6 13.5 6 8.1c0-1 .8-1.8 1.8-1.8Z" fill="none" stroke="currentColor" stroke-width="1.8" stroke-linejoin="round"/></symbol>
  <symbol id="i-mail" viewBox="0 0 24 24"><rect x="4" y="6" width="16" height="12" rx="2" fill="none" stroke="currentColor" stroke-width="1.8"/><path d="m5.5 8 6.5 5 6.5-5" fill="none" stroke="currentColor" stroke-width="1.8" stroke-linecap="round" stroke-linejoin="round"/></symbol>
  <symbol id="i-time" viewBox="0 0 24 24"><circle cx="12" cy="12" r="8" fill="none" stroke="currentColor" stroke-width="1.8"/><path d="M12 7.6V12l2.9 1.9" fill="none" stroke="currentColor" stroke-width="1.8" stroke-linecap="round"/></symbol>
  <symbol id="i-calendar" viewBox="0 0 24 24"><rect x="4" y="5" width="16" height="15" rx="2" fill="none" stroke="currentColor" stroke-width="1.8"/><path d="M8 3v4M16 3v4M4 9h16" fill="none" stroke="currentColor" stroke-width="1.8" stroke-linecap="round"/></symbol>
  <symbol id="i-star" viewBox="0 0 24 24"><path d="m12 3.6 2.5 5.1 5.6.8-4.05 3.95.96 5.6L12 16.9l-5.01 2.65.96-5.6L3.9 9.5l5.6-.8L12 3.6Z" fill="currentColor"/></symbol>
  <symbol id="i-percent" viewBox="0 0 24 24"><path d="M6 18 18 6" fill="none" stroke="currentColor" stroke-width="1.8" stroke-linecap="round"/><circle cx="7.5" cy="7.5" r="2.3" fill="none" stroke="currentColor" stroke-width="1.8"/><circle cx="16.5" cy="16.5" r="2.3" fill="none" stroke="currentColor" stroke-width="1.8"/></symbol>
  <symbol id="i-implant" viewBox="0 0 24 24"><path d="M9 3h6M9.5 6.2h5M10 9.3h4" fill="none" stroke="currentColor" stroke-width="1.8" stroke-linecap="round"/><path d="M10.4 9.3h3.2l-.5 5.2c-.2 2-.7 6.3-1.1 6.3s-.9-4.3-1.1-6.3l-.5-5.2Z" fill="none" stroke="currentColor" stroke-width="1.8" stroke-linejoin="round"/></symbol>
  <symbol id="i-crown" viewBox="0 0 24 24"><path d="M4 9c1.6-.6 2.8-.4 4 .4C8.8 6.6 10.2 5 12 5s3.2 1.6 4 4.4c1.2-.8 2.4-1 4-.4-.6 4.1-1.6 8.5-3.6 9.6-.9.5-1.6-1.2-2.4-1.2H10c-.8 0-1.5 1.7-2.4 1.2C5.6 17.5 4.6 13.1 4 9Z" fill="none" stroke="currentColor" stroke-width="1.8" stroke-linejoin="round"/></symbol>
  <symbol id="i-microscope" viewBox="0 0 24 24"><path d="M6 20h13" fill="none" stroke="currentColor" stroke-width="1.8" stroke-linecap="round"/><path d="M9.5 16.5A6 6 0 0 0 18 11" fill="none" stroke="currentColor" stroke-width="1.8" stroke-linecap="round"/><path d="m11 5 2.5-1.4 2 3.5L13 8.5 11 5Z" fill="none" stroke="currentColor" stroke-width="1.8" stroke-linejoin="round"/><path d="m12 7-3.6 6.2c-.4.7-.1 1.6.6 2s1.6.1 2-.6L14.6 8.4" fill="none" stroke="currentColor" stroke-width="1.8" stroke-linejoin="round"/><path d="M8 20a3.5 3.5 0 0 1 3.5-3.5" fill="none" stroke="currentColor" stroke-width="1.8" stroke-linecap="round"/></symbol>
  <symbol id="i-sparkles" viewBox="0 0 24 24"><path d="M12 4.5c.6 3.2 1.8 4.4 5 5-3.2.6-4.4 1.8-5 5-.6-3.2-1.8-4.4-5-5 3.2-.6 4.4-1.8 5-5Z" fill="none" stroke="currentColor" stroke-width="1.8" stroke-linejoin="round"/><path d="M18.5 14c.3 1.4.8 1.9 2.2 2.2-1.4.3-1.9.8-2.2 2.2-.3-1.4-.8-1.9-2.2-2.2 1.4-.3 1.9-.8 2.2-2.2Z" fill="currentColor"/></symbol>
  <symbol id="i-braces" viewBox="0 0 24 24"><path d="M4 8.5h16M4 15.5h16" fill="none" stroke="currentColor" stroke-width="1.8" stroke-linecap="round"/><rect x="6" y="6.6" width="3.4" height="3.8" rx="1" fill="none" stroke="currentColor" stroke-width="1.8"/><rect x="14.6" y="6.6" width="3.4" height="3.8" rx="1" fill="none" stroke="currentColor" stroke-width="1.8"/><rect x="6" y="13.6" width="3.4" height="3.8" rx="1" fill="none" stroke="currentColor" stroke-width="1.8"/><rect x="14.6" y="13.6" width="3.4" height="3.8" rx="1" fill="none" stroke="currentColor" stroke-width="1.8"/></symbol>
  <symbol id="i-child" viewBox="0 0 24 24"><circle cx="12" cy="6.5" r="2.6" fill="none" stroke="currentColor" stroke-width="1.8"/><path d="M7 20v-4.5a5 5 0 0 1 10 0V20" fill="none" stroke="currentColor" stroke-width="1.8" stroke-linecap="round"/><path d="M9.6 13.4a3.2 1.6 0 0 0 4.8 0" fill="none" stroke="currentColor" stroke-width="1.6" stroke-linecap="round"/></symbol>
  <symbol id="i-syringe" viewBox="0 0 24 24"><path d="m14 4 6 6M17 7l-9.5 9.5L4 20l3.5-3.5L17 7Z" fill="none" stroke="currentColor" stroke-width="1.8" stroke-linejoin="round"/><path d="m10.5 8.5 2.5 2.5M12.5 6.5l5 5" fill="none" stroke="currentColor" stroke-width="1.8" stroke-linecap="round"/></symbol>
  <symbol id="i-bolt" viewBox="0 0 24 24"><path d="M13 3 5 13h5l-1 8 8-10h-5l1-8Z" fill="none" stroke="currentColor" stroke-width="1.8" stroke-linejoin="round"/></symbol>
  <symbol id="i-heart" viewBox="0 0 24 24"><path d="M12 20s-7-4.4-7-9.6A4.4 4.4 0 0 1 12 7a4.4 4.4 0 0 1 7 3.4C19 15.6 12 20 12 20Z" fill="none" stroke="currentColor" stroke-width="1.8" stroke-linejoin="round"/></symbol>
  <symbol id="i-award" viewBox="0 0 24 24"><circle cx="12" cy="9" r="5" fill="none" stroke="currentColor" stroke-width="1.8"/><path d="m8.6 13.4-1.6 7L12 18l5 2.4-1.6-7" fill="none" stroke="currentColor" stroke-width="1.8" stroke-linejoin="round"/></symbol>
  <symbol id="i-route" viewBox="0 0 24 24"><circle cx="6" cy="6" r="2.4" fill="none" stroke="currentColor" stroke-width="1.8"/><circle cx="18" cy="18" r="2.4" fill="none" stroke="currentColor" stroke-width="1.8"/><path d="M6 8.4V13a4 4 0 0 0 4 4h5.6" fill="none" stroke="currentColor" stroke-width="1.8" stroke-linecap="round"/></symbol>
  <symbol id="i-quote" viewBox="0 0 24 24"><path d="M9.5 7c-2.5 0-4 2-4 4.5S7 16 9 16c-.2 1.6-1.3 2.6-3 3.2M19 7c-2.5 0-4 2-4 4.5S16.5 16 18.5 16c-.2 1.6-1.3 2.6-3 3.2" fill="none" stroke="currentColor" stroke-width="1.8" stroke-linecap="round" stroke-linejoin="round"/></symbol>
  <symbol id="i-arrow" viewBox="0 0 24 24"><path d="M5 12h13m-5-5 5 5-5 5" fill="none" stroke="currentColor" stroke-width="1.8" stroke-linecap="round" stroke-linejoin="round"/></symbol>
  <symbol id="i-check-badge" viewBox="0 0 24 24"><path d="M12 3.2 14.2 5l2.8-.2.9 2.7 2.3 1.6-1 2.6 1 2.6-2.3 1.6-.9 2.7-2.8-.2L12 20.8 9.8 19l-2.8.2-.9-2.7L3.8 15l1-2.6-1-2.6 2.3-1.6.9-2.7L9.8 5 12 3.2Z" fill="none" stroke="currentColor" stroke-width="1.6" stroke-linejoin="round"/><path d="m9 12 2 2 4-4" fill="none" stroke="currentColor" stroke-width="1.8" stroke-linecap="round" stroke-linejoin="round"/></symbol>
  <symbol id="i-leaf" viewBox="0 0 24 24"><path d="M20 4C9 4 4 9 4 16c0 1.5.4 2.8 1 4 6-8 9-9 14-10-4 2.6-6.5 4-9 9 8 1 10-6 10-15Z" fill="none" stroke="currentColor" stroke-width="1.8" stroke-linejoin="round"/></symbol>
  <symbol id="i-phone-call" viewBox="0 0 24 24"><path d="M7.5 4.5h2.1l1.1 4-1.8 1.8a14.6 14.6 0 0 0 4.5 4.5l1.8-1.8 4 1.1v2.1c0 1-.8 1.8-1.8 1.8C10.2 18 6 13.8 6 6.3c0-1 .8-1.8 1.5-1.8Z" fill="none" stroke="currentColor" stroke-width="1.8" stroke-linejoin="round"/></symbol>
  <symbol id="i-tooth-shield" viewBox="0 0 24 24"><path d="M12 3.4 18.5 5.7V11c0 4.2-2.6 7.6-6.5 9.3C8.1 18.6 5.5 15.2 5.5 11V5.7L12 3.4Z" fill="none" stroke="currentColor" stroke-width="1.6" stroke-linejoin="round"/><path d="M9.6 8.2c.9-.4 1.6 0 2.4 0 .8 0 1.5-.4 2.4 0 1 .4 1.4 1.4 1.3 2.6-.3 1.8-1 4.4-1.9 4.4-.6 0-.8-1.1-1.8-1.1s-1.2 1.1-1.8 1.1c-.9 0-1.6-2.6-1.9-4.4-.1-1.2.3-2.2 1.3-2.6Z" fill="none" stroke="currentColor" stroke-width="1.6" stroke-linejoin="round"/></symbol>
  <symbol id="i-alert" viewBox="0 0 24 24"><path d="M12 4.5 21 19.5H3L12 4.5Z" fill="none" stroke="currentColor" stroke-width="1.8" stroke-linejoin="round"/><path d="M12 10v4" fill="none" stroke="currentColor" stroke-width="1.8" stroke-linecap="round"/><circle cx="12" cy="16.6" r="1" fill="currentColor"/></symbol>
  <symbol id="i-shine" viewBox="0 0 24 24"><path d="M12 3v3m0 12v3M5.6 5.6l2.1 2.1m8.6 8.6 2.1 2.1M3 12h3m12 0h3M5.6 18.4l2.1-2.1m8.6-8.6 2.1-2.1" fill="none" stroke="currentColor" stroke-width="1.6" stroke-linecap="round"/><circle cx="12" cy="12" r="3.4" fill="none" stroke="currentColor" stroke-width="1.6"/></symbol>
</svg>
